# xmcd
#
# Track frame offsets:
#	182
#	12957
#	26000
#	45825
#	60985
#	78052
#	90142
#	108652
#	126480
#	141150
#
# Disc length: 2080 seconds
#
# Revision: 1
# Processed by: cddbd v1.5.1PL0 Copyright (c) Steve Scherf et al.
# Submitted via: EasyCDDAExtractor 7.0.5.1
#
DISCID=6f081e0a
DTITLE=John Michael Montgomery - Kickin' It Up
DYEAR=1994
DGENRE=Country
TTITLE0=Be My Baby Tonight
TTITLE1=Full-time Love
TTITLE2=I Swear
TTITLE3=She Don't Need A Band To Dance
TTITLE4=All In My Heart
TTITLE5=Friday At Five
TTITLE6=Rope The Moon
TTITLE7=If You've  Got Love
TTITLE8=Oh How She Shines
TTITLE9=Kick It Up
EXTD=
EXTT0=
EXTT1=
EXTT2=
EXTT3=
EXTT4=
EXTT5=
EXTT6=
EXTT7=
EXTT8=
EXTT9=
PLAYORDER=
